<svg width="24" height="24" viewBox="0 0 24 24" fill="none" xmlns="http://www.w3.org/2000/svg">
<mask id="mask0_49_1290" style="mask-type:alpha" maskUnits="userSpaceOnUse" x="0" y="0" width="24" height="24">
<rect width="24" height="24" fill="#D9D9D9"/>
</mask>
<g mask="url(#mask0_49_1290)">
<path d="M21.6 23L18.525 19.95C18.225 20.1333 17.9042 20.2708 17.5625 20.3625C17.2208 20.4542 16.8667 20.5 16.5 20.5C15.4 20.5 14.4583 20.1083 13.675 19.325C12.8917 18.5417 12.5 17.6 12.5 16.5C12.5 15.4 12.8917 14.4583 13.675 13.675C14.4583 12.8917 15.4 12.5 16.5 12.5C17.6 12.5 18.5417 12.8917 19.325 13.675C20.1083 14.4583 20.5 15.4 20.5 16.5C20.5 16.8833 20.45 17.2458 20.35 17.5875C20.25 17.9292 20.1083 18.25 19.925 18.55L23 21.6L21.6 23ZM5.5 20.5C4.4 20.5 3.45833 20.1083 2.675 19.325C1.89167 18.5417 1.5 17.6 1.5 16.5C1.5 15.4 1.89167 14.4583 2.675 13.675C3.45833 12.8917 4.4 12.5 5.5 12.5C6.6 12.5 7.54167 12.8917 8.325 13.675C9.10833 14.4583 9.5 15.4 9.5 16.5C9.5 17.6 9.10833 18.5417 8.325 19.325C7.54167 20.1083 6.6 20.5 5.5 20.5ZM5.5 18.5C6.05 18.5 6.52083 18.3042 6.9125 17.9125C7.30417 17.5208 7.5 17.05 7.5 16.5C7.5 15.95 7.30417 15.4792 6.9125 15.0875C6.52083 14.6958 6.05 14.5 5.5 14.5C4.95 14.5 4.47917 14.6958 4.0875 15.0875C3.69583 15.4792 3.5 15.95 3.5 16.5C3.5 17.05 3.69583 17.5208 4.0875 17.9125C4.47917 18.3042 4.95 18.5 5.5 18.5ZM16.5 18.5C17.05 18.5 17.5208 18.3042 17.9125 17.9125C18.3042 17.5208 18.5 17.05 18.5 16.5C18.5 15.95 18.3042 15.4792 17.9125 15.0875C17.5208 14.6958 17.05 14.5 16.5 14.5C15.95 14.5 15.4792 14.6958 15.0875 15.0875C14.6958 15.4792 14.5 15.95 14.5 16.5C14.5 17.05 14.6958 17.5208 15.0875 17.9125C15.4792 18.3042 15.95 18.5 16.5 18.5ZM5.5 9.5C4.4 9.5 3.45833 9.10833 2.675 8.325C1.89167 7.54167 1.5 6.6 1.5 5.5C1.5 4.4 1.89167 3.45833 2.675 2.675C3.45833 1.89167 4.4 1.5 5.5 1.5C6.6 1.5 7.54167 1.89167 8.325 2.675C9.10833 3.45833 9.5 4.4 9.5 5.5C9.5 6.6 9.10833 7.54167 8.325 8.325C7.54167 9.10833 6.6 9.5 5.5 9.5ZM16.5 9.5C15.4 9.5 14.4583 9.10833 13.675 8.325C12.8917 7.54167 12.5 6.6 12.5 5.5C12.5 4.4 12.8917 3.45833 13.675 2.675C14.4583 1.89167 15.4 1.5 16.5 1.5C17.6 1.5 18.5417 1.89167 19.325 2.675C20.1083 3.45833 20.5 4.4 20.5 5.5C20.5 6.6 20.1083 7.54167 19.325 8.325C18.5417 9.10833 17.6 9.5 16.5 9.5ZM5.5 7.5C6.05 7.5 6.52083 7.30417 6.9125 6.9125C7.30417 6.52083 7.5 6.05 7.5 5.5C7.5 4.95 7.30417 4.47917 6.9125 4.0875C6.52083 3.69583 6.05 3.5 5.5 3.5C4.95 3.5 4.47917 3.69583 4.0875 4.0875C3.69583 4.47917 3.5 4.95 3.5 5.5C3.5 6.05 3.69583 6.52083 4.0875 6.9125C4.47917 7.30417 4.95 7.5 5.5 7.5ZM16.5 7.5C17.05 7.5 17.5208 7.30417 17.9125 6.9125C18.3042 6.52083 18.5 6.05 18.5 5.5C18.5 4.95 18.3042 4.47917 17.9125 4.0875C17.5208 3.69583 17.05 3.5 16.5 3.5C15.95 3.5 15.4792 3.69583 15.0875 4.0875C14.6958 4.47917 14.5 4.95 14.5 5.5C14.5 6.05 14.6958 6.52083 15.0875 6.9125C15.4792 7.30417 15.95 7.5 16.5 7.5Z" fill="#1C1B1F"/>
</g>
</svg>
