<svg width="16" height="16" viewBox="0 0 16 16" fill="none" xmlns="http://www.w3.org/2000/svg">
<mask id="mask0_50_913" style="mask-type:alpha" maskUnits="userSpaceOnUse" x="0" y="0" width="16" height="16">
<rect width="16" height="16" fill="#D9D9D9"/>
</mask>
<g mask="url(#mask0_50_913)">
<path d="M7.33337 11.3333H8.66671V8.53329L9.73337 9.59996L10.6667 8.66663L8.00004 5.99996L5.33337 8.66663L6.26671 9.59996L7.33337 8.53329V11.3333ZM2.66671 13.3333C2.30004 13.3333 1.98615 13.2027 1.72504 12.9416C1.46393 12.6805 1.33337 12.3666 1.33337 12V3.99996C1.33337 3.63329 1.46393 3.3194 1.72504 3.05829C1.98615 2.79718 2.30004 2.66663 2.66671 2.66663H6.66671L8.00004 3.99996H13.3334C13.7 3.99996 14.0139 4.13051 14.275 4.39163C14.5362 4.65274 14.6667 4.96663 14.6667 5.33329V12C14.6667 12.3666 14.5362 12.6805 14.275 12.9416C14.0139 13.2027 13.7 13.3333 13.3334 13.3333H2.66671ZM2.66671 12H13.3334V5.33329H7.45004L6.11671 3.99996H2.66671V12Z" fill="#1C1B1F"/>
</g>
</svg>
