<svg width="16" height="16" viewBox="0 0 16 16" fill="none" xmlns="http://www.w3.org/2000/svg">
<mask id="mask0_50_949" style="mask-type:alpha" maskUnits="userSpaceOnUse" x="0" y="0" width="16" height="16">
<rect width="16" height="16" fill="#D9D9D9"/>
</mask>
<g mask="url(#mask0_50_949)">
<path d="M4.33333 7.33337L8 1.33337L11.6667 7.33337H4.33333ZM11.6667 14.6667C10.8333 14.6667 10.125 14.375 9.54167 13.7917C8.95833 13.2084 8.66667 12.5 8.66667 11.6667C8.66667 10.8334 8.95833 10.125 9.54167 9.54171C10.125 8.95837 10.8333 8.66671 11.6667 8.66671C12.5 8.66671 13.2083 8.95837 13.7917 9.54171C14.375 10.125 14.6667 10.8334 14.6667 11.6667C14.6667 12.5 14.375 13.2084 13.7917 13.7917C13.2083 14.375 12.5 14.6667 11.6667 14.6667ZM2 14.3334V9.00004H7.33333V14.3334H2ZM11.6667 13.3334C12.1333 13.3334 12.5278 13.1723 12.85 12.85C13.1722 12.5278 13.3333 12.1334 13.3333 11.6667C13.3333 11.2 13.1722 10.8056 12.85 10.4834C12.5278 10.1612 12.1333 10 11.6667 10C11.2 10 10.8056 10.1612 10.4833 10.4834C10.1611 10.8056 10 11.2 10 11.6667C10 12.1334 10.1611 12.5278 10.4833 12.85C10.8056 13.1723 11.2 13.3334 11.6667 13.3334ZM3.33333 13H6V10.3334H3.33333V13ZM6.7 6.00004H9.3L8 3.90004L6.7 6.00004Z" fill="#1C1B1F"/>
</g>
</svg>
