<svg width="16" height="16" viewBox="0 0 16 16" fill="none" xmlns="http://www.w3.org/2000/svg">
<mask id="mask0_50_2118" style="mask-type:alpha" maskUnits="userSpaceOnUse" x="0" y="0" width="16" height="16">
<rect width="16" height="16" fill="#D9D9D9"/>
</mask>
<g mask="url(#mask0_50_2118)">
<path d="M8.00004 10.6667C8.53337 10.6667 9.00837 10.5084 9.42504 10.1917C9.84171 9.87504 10.1445 9.46671 10.3334 8.96671H5.66671C5.8556 9.46671 6.15837 9.87504 6.57504 10.1917C6.99171 10.5084 7.46671 10.6667 8.00004 10.6667ZM6.33337 8.00004C6.61115 8.00004 6.84726 7.90282 7.04171 7.70837C7.23615 7.51393 7.33337 7.27782 7.33337 7.00004C7.33337 6.72226 7.23615 6.48615 7.04171 6.29171C6.84726 6.09726 6.61115 6.00004 6.33337 6.00004C6.0556 6.00004 5.81948 6.09726 5.62504 6.29171C5.4306 6.48615 5.33337 6.72226 5.33337 7.00004C5.33337 7.27782 5.4306 7.51393 5.62504 7.70837C5.81948 7.90282 6.0556 8.00004 6.33337 8.00004ZM9.66671 8.00004C9.94448 8.00004 10.1806 7.90282 10.375 7.70837C10.5695 7.51393 10.6667 7.27782 10.6667 7.00004C10.6667 6.72226 10.5695 6.48615 10.375 6.29171C10.1806 6.09726 9.94448 6.00004 9.66671 6.00004C9.38893 6.00004 9.15282 6.09726 8.95837 6.29171C8.76393 6.48615 8.66671 6.72226 8.66671 7.00004C8.66671 7.27782 8.76393 7.51393 8.95837 7.70837C9.15282 7.90282 9.38893 8.00004 9.66671 8.00004ZM5.08337 4.26671L6.95004 1.85004C7.08337 1.67226 7.24171 1.54171 7.42504 1.45837C7.60837 1.37504 7.80004 1.33337 8.00004 1.33337C8.20004 1.33337 8.39171 1.37504 8.57504 1.45837C8.75837 1.54171 8.91671 1.67226 9.05004 1.85004L10.9167 4.26671L13.75 5.21671C14.0389 5.3056 14.2667 5.46949 14.4334 5.70837C14.6 5.94726 14.6834 6.21115 14.6834 6.50004C14.6834 6.63337 14.6639 6.76671 14.625 6.90004C14.5862 7.03337 14.5223 7.16115 14.4334 7.28337L12.6 9.88337L12.6667 12.6167C12.6778 13.0056 12.55 13.3334 12.2834 13.6C12.0167 13.8667 11.7056 14 11.35 14C11.3278 14 11.2056 13.9834 10.9834 13.95L8.00004 13.1167L5.01671 13.95C4.96115 13.9723 4.90004 13.9862 4.83337 13.9917C4.76671 13.9973 4.7056 14 4.65004 14C4.29448 14 3.98337 13.8667 3.71671 13.6C3.45004 13.3334 3.32226 13.0056 3.33337 12.6167L3.40004 9.86671L1.58337 7.28337C1.49449 7.16115 1.4306 7.03337 1.39171 6.90004C1.35282 6.76671 1.33337 6.63337 1.33337 6.50004C1.33337 6.22226 1.41393 5.96393 1.57504 5.72504C1.73615 5.48615 1.96115 5.31671 2.25004 5.21671L5.08337 4.26671ZM5.90004 5.41671L2.66671 6.48337L4.73337 9.46671L4.66671 12.65L8.00004 11.7334L11.3334 12.6667L11.2667 9.46671L13.3334 6.51671L10.1 5.41671L8.00004 2.66671L5.90004 5.41671Z" fill="#1C1B1F"/>
</g>
</svg>
